<mxfile host="Electron" modified="2024-02-09T14:41:19.593Z" agent="Mozilla/5.0 (Windows NT 10.0; Win64; x64) AppleWebKit/537.36 (KHTML, like Gecko) draw.io/22.0.3 Chrome/114.0.5735.289 Electron/25.8.4 Safari/537.36" etag="CfoQVD5h9PpKqB-ZspBJ" version="22.0.3" type="device">
  <diagram id="NQCc2lawZd-kk5V-elX-" name="Pagina-1">
    <mxGraphModel dx="1160" dy="551" grid="1" gridSize="10" guides="1" tooltips="1" connect="1" arrows="1" fold="1" page="1" pageScale="1" pageWidth="827" pageHeight="1169" math="0" shadow="0">
      <root>
        <mxCell id="0" />
        <mxCell id="1" parent="0" />
        <mxCell id="RixralwCgbLxgU_VMYqu-1" value="Prima Guerra Mondiale&lt;br&gt;(1914-1918)" style="rounded=1;whiteSpace=wrap;html=1;" vertex="1" parent="1">
          <mxGeometry x="340" y="50" width="120" height="60" as="geometry" />
        </mxCell>
        <mxCell id="RixralwCgbLxgU_VMYqu-3" value="Cause:&lt;br&gt;&lt;br&gt;- Egemonia sui Balcani&lt;br&gt;(Impero Ottomano in decadenza / Serbia / Impero austro-ungarico all&#39;attacco delle popolazioni)&lt;br&gt;- Guerra franco-prussiana&lt;br&gt;(Revanscismo / Egemonia tedesca)&lt;br&gt;&lt;br&gt;Alleanze:&lt;br&gt;&lt;br&gt;- Triplice Intesa (Russia, Gran Bretagna, Francia)&lt;br&gt;- Triplice Alleanza (Italia, Germania, Austria-Ungheria)" style="rounded=0;whiteSpace=wrap;html=1;" vertex="1" parent="1">
          <mxGeometry x="50" y="200" width="320" height="190" as="geometry" />
        </mxCell>
        <mxCell id="RixralwCgbLxgU_VMYqu-4" value="Motivazioni primarie&lt;br&gt;&lt;br&gt;- Nazionalismo (tra nazioni austro-ungariche)&lt;br&gt;- Odio nei confronti delle altre azioni&lt;br&gt;- Irredentismo (terre da conquistare per prospetti di superioritÃ  culturale)&lt;br&gt;- Pangermanismo (unificazione popolazioni germaniche)&lt;br&gt;- Panslavismo (unificazione popolazioni slave sotto un unico grande stato)&lt;br&gt;- Panturchismo (Ataturk e genocidio armeni)&lt;br&gt;&lt;br&gt;Motivazioni secondarie&lt;br&gt;&lt;br&gt;- Guerre interne di colonialismo (Inghilterra - Francia) con stati africani&lt;br&gt;- Crescita assoluta giapponese (colonialismo asiatico)&lt;br&gt;- Corsa agli armamenti" style="rounded=0;whiteSpace=wrap;html=1;" vertex="1" parent="1">
          <mxGeometry x="440" y="150" width="350" height="250" as="geometry" />
        </mxCell>
        <mxCell id="RixralwCgbLxgU_VMYqu-6" value="Causa-effetto:&lt;br&gt;&lt;br&gt;- Attentato a Francesco Ferdinando (28 giugno 1914)&lt;br&gt;- Austria dichiara guerra alla Serbia (28 luglio 1914)&lt;br&gt;- Germania dichiara guerra alla Russia e alla Francia (1/3 Agosto 1914)&lt;br&gt;- Germania entra in Belgio neutrale&lt;br&gt;- Gran Bretagna si allea col Belgio&lt;br&gt;- La Francia dichiara guerra alla Germania (4 Agosto)&lt;br&gt;- Lo stesso giorno inizia WW1&lt;br&gt;- Genocidio degli Armeni&lt;br&gt;&lt;br&gt;Condizioni:&lt;br&gt;&amp;nbsp;- Germania: buona preparazione militare, industrializzazione avanzata, ottima flotta militare&lt;br&gt;- Gran Bretagna: ottima preparazione militare, migliore flotta militare al mondo&lt;br&gt;&lt;br&gt;Caratteristiche:&lt;br&gt;- Guerra di trincea = armamenti pesanti (e.g. cannoni/mortai/mitragliatrici) in territori circoscritti&lt;br&gt;- Guerra di posizione = lente / avanzamenti piccoli / attacchi veloci" style="rounded=0;whiteSpace=wrap;html=1;" vertex="1" parent="1">
          <mxGeometry x="230" y="430" width="490" height="310" as="geometry" />
        </mxCell>
      </root>
    </mxGraphModel>
  </diagram>
</mxfile>
